<?xml version="1.0" standalone="no"?>
<!DOCTYPE svg PUBLIC "-//W3C//DTD SVG 20010904//EN"
 "http://www.w3.org/TR/2001/REC-SVG-20010904/DTD/svg10.dtd">
<svg version="1.0" xmlns="http://www.w3.org/2000/svg"
 width="525.000000pt" height="330.000000pt" viewBox="0 0 525.000000 330.000000"
 preserveAspectRatio="xMidYMid meet">
<metadata>
Created by potrace 1.16, written by Peter Selinger 2001-2019
</metadata>
<g transform="translate(0.000000,330.000000) scale(0.100000,-0.100000)"
fill="#000000" stroke="none">
<path d="M1427 1821 c-15 -10 -34 -27 -41 -37 -20 -31 -37 -76 -26 -69 11 7
13 -3 10 -50 -2 -41 51 -91 103 -97 20 -2 37 0 37 4 0 4 -4 8 -10 8 -5 0 -18
10 -30 22 -28 30 -18 84 21 121 27 24 27 27 9 27 -30 0 -70 -47 -70 -81 0 -34
-15 -38 -24 -6 -19 72 17 142 86 164 l33 11 -35 1 c-19 0 -48 -7 -63 -18z"/>
<path d="M2187 1723 c1 -38 2 -94 2 -125 l1 -58 58 0 c79 0 106 16 110 64 2
24 -2 44 -13 56 -14 16 -14 18 0 30 10 8 15 25 13 44 -4 40 -36 56 -113 56
l-60 0 2 -67z"/>
<path d="M2469 1775 c-27 -15 -34 -26 -50 -79 -12 -40 4 -96 37 -127 21 -19
36 -24 80 -24 45 0 58 4 81 27 22 22 27 39 31 87 4 58 3 62 -31 96 -29 29 -42
35 -78 35 -24 -1 -56 -7 -70 -15z m115 -47 c40 -63 11 -148 -49 -148 -40 0
-65 33 -65 85 0 32 6 51 20 65 27 27 76 26 94 -2z"/>
<path d="M2763 1780 c-74 -31 -80 -177 -10 -221 38 -24 118 -20 148 7 46 41
48 140 5 190 -17 21 -33 27 -72 30 -27 2 -59 0 -71 -6z m107 -52 c45 -49 14
-148 -48 -148 -33 0 -45 8 -61 37 -43 83 47 177 109 111z"/>
<path d="M3000 1665 l0 -125 25 0 c23 0 25 3 25 50 0 68 24 68 65 0 21 -37 35
-50 52 -50 13 0 23 3 23 6 0 4 -18 35 -40 70 l-40 64 41 53 c41 51 41 52 18
56 -17 2 -30 -6 -49 -30 -14 -18 -35 -44 -47 -58 l-22 -26 -1 58 c0 54 -1 57
-25 57 l-25 0 0 -125z"/>
<path d="M3217 1770 c4 -14 14 -20 34 -20 l29 0 0 -105 0 -105 25 0 25 0 0
105 0 105 35 0 c28 0 35 4 35 20 0 19 -7 20 -94 20 -89 0 -94 -1 -89 -20z"/>
<path d="M3488 1773 c-48 -30 -66 -106 -39 -170 29 -70 140 -83 194 -23 23 25
27 39 27 86 0 50 -3 59 -34 90 -28 28 -41 34 -77 34 -24 0 -56 -8 -71 -17z
m102 -33 c10 -5 23 -25 30 -44 24 -74 -37 -139 -99 -105 -22 12 -26 23 -29 68
-2 39 1 58 14 72 19 21 55 25 84 9z"/>
<path d="M3730 1665 l0 -125 25 0 c23 0 25 4 25 45 0 44 0 45 34 45 50 0 86
33 86 78 0 62 -28 82 -114 82 l-56 0 0 -125z"/>
<path d="M1640 1553 c-96 -31 -184 -33 -241 -5 l-42 21 28 -29 c65 -68 165
-76 302 -23 71 27 97 47 51 40 -13 -2 -17 -2 -10 0 12 4 7 24 -6 22 -4 -1 -41
-12 -82 -26z"/>
</g>
</svg>
